<?xml version="1.0" standalone="no"?><!DOCTYPE svg PUBLIC "-//W3C//DTD SVG 1.1//EN" "http://www.w3.org/Graphics/SVG/1.1/DTD/svg11.dtd"><svg t="1724211368617" class="icon" viewBox="0 0 1024 1024" version="1.1" xmlns="http://www.w3.org/2000/svg" p-id="4251" xmlns:xlink="http://www.w3.org/1999/xlink" width="200" height="200"><path d="M512 512m-512 0a512 512 0 1 0 1024 0 512 512 0 1 0-1024 0Z" fill="#EEEEEE" p-id="4252"></path><path d="M466.705067 760.149333a363.52 363.52 0 0 0-29.696 42.9056 348.16 348.16 0 0 0 69.393066-24.8832 223.0272 223.0272 0 0 0 102.8096-90.965333 52.462933 52.462933 0 0 0-3.413333-49.629867c-51.2-54.613333-102.4-102.673067-156.603733-153.6l-5.632-5.188266a90.077867 90.077867 0 0 0-60.654934-24.7808 100.829867 100.829867 0 0 0-45.1584 11.5712c-9.9328 4.949333-19.968 9.1136-29.730133 13.141333s-19.7632 8.226133-29.9008 13.243733a94.1056 94.1056 0 0 1-37.1712 8.772267 63.522133 63.522133 0 0 1-32.3584-8.772267 19.0464 19.0464 0 0 0-10.8544-2.833066 86.254933 86.254933 0 0 0-21.981867 4.3008 253.8496 253.8496 0 0 1-6.826666 1.877333l-3.413334 13.2096c1.604267 4.676267 3.1744 10.24 4.744534 15.598933l0.477866 1.672534c1.467733 5.12 3.106133 10.990933 4.7104 15.837866 12.151467 36.386133 27.613867 51.882667 51.780267 51.882667a103.7312 103.7312 0 0 0 37.546667-8.840533c11.6736-5.0176 24.405333-10.24 36.693333-15.018667h0.443733c11.9808-4.778667 24.3712-9.728 35.771734-14.609067a3.208533 3.208533 0 0 1 3.413333 3.413334c-17.7152 12.9024-34.952533 26.0096-51.6096 38.7072l-1.1264 0.887466c-16.1792 12.322133-34.5088 26.3168-53.213867 39.867734 28.228267 31.061333 55.569067 62.088533 82.773334 95.982933a33.109333 33.109333 0 0 0 22.903466 11.707733 32.529067 32.529067 0 0 0 20.1728-8.465066 272.145067 272.145067 0 0 1 66.184534-39.7312l3.413333 3.413333a517.973333 517.973333 0 0 0-35.84 41.403733l-1.2288 1.501867c-6.178133 7.611733-12.526933 15.496533-19.285333 23.313067a47.991467 47.991467 0 0 0 36.1472 22.596266 74.1376 74.1376 0 0 0 39.082666-17.851733 202.6496 202.6496 0 0 1 17.373867-11.1616z" fill="#999999" p-id="4253"></path><path d="M501.589333 409.1904a35.293867 35.293867 0 0 0-24.849066 9.898667 36.1472 36.1472 0 0 0 0 49.664l119.159466 119.159466a39.662933 39.662933 0 0 0 27.306667 12.3904 25.3952 25.3952 0 0 0 22.3232-12.3904 35.805867 35.805867 0 0 0 0-49.629866l-119.159467-119.1936a35.191467 35.191467 0 0 0-24.712533-9.898667z" fill="#999999" p-id="4254"></path><path d="M786.295467 206.5408a58.402133 58.402133 0 0 0-41.403734 17.373867l-172.202666 201.898666 66.184533 66.1504 205.243733-168.823466a58.026667 58.026667 0 0 0 0-82.7392l-16.520533-16.4864a58.402133 58.402133 0 0 0-41.233067-17.373867z" fill="#999999" p-id="4255"></path></svg>