<?xml version="1.0" standalone="no"?><!DOCTYPE svg PUBLIC "-//W3C//DTD SVG 1.1//EN" "http://www.w3.org/Graphics/SVG/1.1/DTD/svg11.dtd"><svg t="1724234862044" class="icon" viewBox="0 0 1024 1024" version="1.1" xmlns="http://www.w3.org/2000/svg" p-id="6084" xmlns:xlink="http://www.w3.org/1999/xlink" width="200" height="200"><path d="M928 672H832V448a320 320 0 0 0-257.28-313.664C574.912 132.096 576 130.24 576 128a64 64 0 1 0-128 0c0 2.24 1.088 4.096 1.28 6.336A319.936 319.936 0 0 0 192 448v224H96a32 32 0 0 0 0 64h832a32 32 0 0 0 0-64zM256 672V445.184C256 305.344 370.624 192 512 192s256 113.344 256 253.184V672H256zM512 896a96 96 0 0 1-96-96h-64a160 160 0 1 0 320 0h-64A96 96 0 0 1 512 896z" fill="" p-id="6085"></path></svg>